# xmcd
# 
# Track frame offsets:
#     150
#     21060
#     37095
#     56323
#     76118
#     94213
#     112613
#     138950
#     156635
# 
# Disc length: 2479
# 
# Revision: 11
# Processed by: cddbd v1.5.2PL0 Copyright (c) Steve Scherf et al.
# Submitted via: BonkEnc v1.0.15
# 
DISCID=6609ad09
DTITLE=Steely Dan d - The Royal Scam
DYEAR=1976
DGENRE=Rock
TTITLE0=Kid Charlemagne
TTITLE1=The Caves of Altamira
TTITLE2=Don't Take Me Alive
TTITLE3=Sign in Stranger
TTITLE4=The Fez
TTITLE5=Green Earrings
TTITLE6=Haitian Divorce
TTITLE7=Everything You Did
TTITLE8=The Royal Scam
EXTD=
EXTT0=
EXTT1=
EXTT2=
EXTT3=
EXTT4=
EXTT5=
EXTT6=
EXTT7=
EXTT8=
PLAYORDER=
